# xmcd
#
# Track frame offsets: 
#        183
#        16915
#        34288
#        60915
#
# Disc length: 1030 seconds
#
# Revision: 0
# Processed by: cddbd v1.5.1PL0 Copyright (c) Steve Scherf et al.
# Submitted via: ExactAudioCopy v0.95a5
#
DISCID=26040404
DTITLE=Spitting Image - Christmas Singles (UK Maxi-Single)
DYEAR=1990
DGENRE=Christmas/Holiday
TTITLE0=The Christmas Singles (7" Version)
TTITLE1=Keepin' On Rockin'
TTITLE2=The Christmas Singles (12" Version)
TTITLE3=I'm Queen (Or The House Of Windsor)
EXTD=
EXTT0=
EXTT1=
EXTT2=
EXTT3=
PLAYORDER=
